<?xml version="1.0" encoding="utf-8" ?><svg xmlns="http://www.w3.org/2000/svg" xmlns:xlink="http://www.w3.org/1999/xlink" width="138" height="93" viewBox="0 0 138 93"><path fill="white" d="M99.9835 3.01411C100.619 3.04969 101.292 3.10966 101.692 3.58714C102.165 4.20516 102.488 5.56098 102.523 6.33435C103.166 20.7411 102.835 35.2185 102.646 49.631C102.515 59.6028 100.523 69.1038 92.9349 76.2507C86.2914 82.508 77.1029 86.0933 67.9394 85.9112C58.8336 85.5923 49.5324 81.611 43.237 74.9616C34.3274 65.5512 34.3795 53.3101 34.7286 41.1874C34.9086 38.6074 35.0034 35.6143 36.0935 33.2402C37.0399 31.1787 39.8067 28.7053 41.9221 27.8555C42.5893 27.5874 43.8018 27.5252 44.3224 27.8928C48.8559 31.0936 45.8831 45.4835 46.2551 50.6826C46.5393 54.6542 46.0285 57.1824 47.3062 60.9044C49.2611 66.5095 53.3443 70.2541 58.5686 72.9448C69.6294 78.6414 84.4153 73.2868 89.3501 61.939C91.4911 57.0157 90.9775 49.7684 91.0154 44.3061L91.022 19.3214C91.0905 10.9691 90.6949 6.17065 99.9835 3.01411Z"/><path fill="white" d="M81.8309 11.0058C82.4609 10.9627 82.5696 10.9835 83.1013 11.3349C84.3527 13.1302 84.0413 31.9554 84.0302 35.1231C84.0083 41.3458 84.3505 48.8535 83.4977 55.1019C83.3065 56.5033 82.3658 57.6679 81.5166 58.7425C78.8673 59.889 78.0261 60.2084 75.232 59.3709C74.3448 58.6795 73.6967 57.8838 73.2976 56.8216C71.4705 51.9577 71.237 21.4909 73.3074 17.0346C74.7906 13.8422 78.7303 12.1157 81.8309 11.0058Z"/><path fill="white" d="M62.8389 19.2721C65.283 18.4393 65.4396 20.5284 65.3472 22.2512C64.7404 33.5634 65.5136 44.9953 64.139 56.2498C64.0609 56.8893 63.0536 58.2038 62.6456 58.7619C61.8129 59.1607 60.6829 59.6057 59.8127 59.978C58.6616 59.7826 57.69 59.4807 56.5744 59.1538C52.3357 56.3198 53.1345 43.7157 53.1765 38.8233C53.254 29.8138 52.6861 22.1862 62.8389 19.2721Z"/></svg>