<svg width="517" height="36" viewBox="0 0 517 36" fill="none" xmlns="http://www.w3.org/2000/svg">
<path d="M0 35.4L517 35.4M0.888 9.524C0.888 7.892 1.264 6.428 2.016 5.132C2.784 3.836 3.816 2.828 5.112 2.108C6.424 1.372 7.856 1.004 9.408 1.004C11.184 1.004 12.76 1.444 14.136 2.324C15.528 3.188 16.536 4.42 17.16 6.02H13.872C13.44 5.14 12.84 4.484 12.072 4.052C11.304 3.62 10.416 3.404 9.408 3.404C8.304 3.404 7.32 3.652 6.456 4.148C5.592 4.644 4.912 5.356 4.416 6.284C3.936 7.212 3.696 8.292 3.696 9.524C3.696 10.756 3.936 11.836 4.416 12.764C4.912 13.692 5.592 14.412 6.456 14.924C7.32 15.42 8.304 15.668 9.408 15.668C10.416 15.668 11.304 15.452 12.072 15.02C12.84 14.588 13.44 13.932 13.872 13.052H17.16C16.536 14.652 15.528 15.884 14.136 16.748C12.76 17.612 11.184 18.044 9.408 18.044C7.84 18.044 6.408 17.684 5.112 16.964C3.816 16.228 2.784 15.212 2.016 13.916C1.264 12.62 0.888 11.156 0.888 9.524ZM26.0985 18.116C24.8505 18.116 23.7225 17.836 22.7145 17.276C21.7065 16.7 20.9145 15.9 20.3385 14.876C19.7625 13.836 19.4745 12.636 19.4745 11.276C19.4745 9.932 19.7705 8.74 20.3625 7.7C20.9545 6.66 21.7625 5.86 22.7865 5.3C23.8105 4.74 24.9545 4.46 26.2185 4.46C27.4825 4.46 28.6265 4.74 29.6505 5.3C30.6745 5.86 31.4825 6.66 32.0745 7.7C32.6665 8.74 32.9625 9.932 32.9625 11.276C32.9625 12.62 32.6585 13.812 32.0505 14.852C31.4425 15.892 30.6105 16.7 29.5545 17.276C28.5145 17.836 27.3625 18.116 26.0985 18.116ZM26.0985 15.74C26.8025 15.74 27.4585 15.572 28.0665 15.236C28.6905 14.9 29.1945 14.396 29.5785 13.724C29.9625 13.052 30.1545 12.236 30.1545 11.276C30.1545 10.316 29.9705 9.508 29.6025 8.852C29.2345 8.18 28.7465 7.676 28.1385 7.34C27.5305 7.004 26.8745 6.836 26.1705 6.836C25.4665 6.836 24.8105 7.004 24.2025 7.34C23.6105 7.676 23.1385 8.18 22.7865 8.852C22.4345 9.508 22.2585 10.316 22.2585 11.276C22.2585 12.7 22.6185 13.804 23.3385 14.588C24.0745 15.356 24.9945 15.74 26.0985 15.74ZM42.3392 4.46C43.3792 4.46 44.3072 4.676 45.1232 5.108C45.9552 5.54 46.6032 6.18 47.0672 7.028C47.5312 7.876 47.7632 8.9 47.7632 10.1V17.9H45.0512V10.508C45.0512 9.324 44.7552 8.42 44.1632 7.796C43.5712 7.156 42.7632 6.836 41.7392 6.836C40.7152 6.836 39.8992 7.156 39.2912 7.796C38.6992 8.42 38.4032 9.324 38.4032 10.508V17.9H35.6672V4.676H38.4032V6.188C38.8512 5.644 39.4192 5.22 40.1072 4.916C40.8112 4.612 41.5552 4.46 42.3392 4.46ZM54.4451 6.908V14.228C54.4451 14.724 54.5571 15.084 54.7811 15.308C55.0211 15.516 55.4211 15.62 55.9811 15.62H57.6611V17.9H55.5011C54.2691 17.9 53.3251 17.612 52.6691 17.036C52.0131 16.46 51.6851 15.524 51.6851 14.228V6.908H50.1251V4.676H51.6851V1.388H54.4451V4.676H57.6611V6.908H54.4451ZM62.9188 6.596C63.3188 5.924 63.8468 5.404 64.5028 5.036C65.1748 4.652 65.9668 4.46 66.8788 4.46V7.292H66.1828C65.1108 7.292 64.2948 7.564 63.7348 8.108C63.1908 8.652 62.9188 9.596 62.9188 10.94V17.9H60.1828V4.676H62.9188V6.596ZM68.4818 11.228C68.4818 9.9 68.7538 8.724 69.2978 7.7C69.8578 6.676 70.6097 5.884 71.5537 5.324C72.5137 4.748 73.5697 4.46 74.7217 4.46C75.7617 4.46 76.6658 4.668 77.4338 5.084C78.2178 5.484 78.8417 5.988 79.3057 6.596V4.676H82.0658V17.9H79.3057V15.932C78.8417 16.556 78.2098 17.076 77.4098 17.492C76.6098 17.908 75.6978 18.116 74.6738 18.116C73.5378 18.116 72.4977 17.828 71.5537 17.252C70.6097 16.66 69.8578 15.844 69.2978 14.804C68.7538 13.748 68.4818 12.556 68.4818 11.228ZM79.3057 11.276C79.3057 10.364 79.1138 9.572 78.7298 8.9C78.3618 8.228 77.8737 7.716 77.2657 7.364C76.6577 7.012 76.0018 6.836 75.2978 6.836C74.5938 6.836 73.9378 7.012 73.3298 7.364C72.7218 7.7 72.2258 8.204 71.8418 8.876C71.4738 9.532 71.2897 10.316 71.2897 11.228C71.2897 12.14 71.4738 12.94 71.8418 13.628C72.2258 14.316 72.7218 14.844 73.3298 15.212C73.9538 15.564 74.6098 15.74 75.2978 15.74C76.0018 15.74 76.6577 15.564 77.2657 15.212C77.8737 14.86 78.3618 14.348 78.7298 13.676C79.1138 12.988 79.3057 12.188 79.3057 11.276ZM90.4594 18.116C89.4194 18.116 88.4834 17.932 87.6514 17.564C86.8354 17.18 86.1874 16.668 85.7074 16.028C85.2274 15.372 84.9714 14.644 84.9394 13.844H87.7714C87.8194 14.404 88.0834 14.876 88.5634 15.26C89.0594 15.628 89.6754 15.812 90.4114 15.812C91.1794 15.812 91.7714 15.668 92.1874 15.38C92.6194 15.076 92.8354 14.692 92.8354 14.228C92.8354 13.732 92.5954 13.364 92.1154 13.124C91.6514 12.884 90.9074 12.62 89.8834 12.332C88.8914 12.06 88.0834 11.796 87.4594 11.54C86.8354 11.284 86.2914 10.892 85.8274 10.364C85.3794 9.836 85.1554 9.14 85.1554 8.276C85.1554 7.572 85.3634 6.932 85.7794 6.356C86.1954 5.764 86.7874 5.3 87.5554 4.964C88.3394 4.628 89.2354 4.46 90.2434 4.46C91.7474 4.46 92.9554 4.844 93.8674 5.612C94.7954 6.364 95.2914 7.396 95.3554 8.708H92.6194C92.5714 8.116 92.3314 7.644 91.8994 7.292C91.4674 6.94 90.8834 6.764 90.1474 6.764C89.4274 6.764 88.8754 6.9 88.4914 7.172C88.1074 7.444 87.9154 7.804 87.9154 8.252C87.9154 8.604 88.0434 8.9 88.2994 9.14C88.5554 9.38 88.8674 9.572 89.2354 9.716C89.6034 9.844 90.1474 10.012 90.8674 10.22C91.8274 10.476 92.6114 10.74 93.2194 11.012C93.8434 11.268 94.3794 11.652 94.8274 12.164C95.2754 12.676 95.5074 13.356 95.5234 14.204C95.5234 14.956 95.3154 15.628 94.8994 16.22C94.4834 16.812 93.8914 17.276 93.1234 17.612C92.3714 17.948 91.4834 18.116 90.4594 18.116ZM110.6 10.964C110.6 11.46 110.568 11.908 110.504 12.308H100.4C100.48 13.364 100.872 14.212 101.576 14.852C102.28 15.492 103.144 15.812 104.168 15.812C105.64 15.812 106.68 15.196 107.288 13.964H110.24C109.84 15.18 109.112 16.18 108.056 16.964C107.016 17.732 105.72 18.116 104.168 18.116C102.904 18.116 101.768 17.836 100.76 17.276C99.7677 16.7 98.9837 15.9 98.4077 14.876C97.8477 13.836 97.5677 12.636 97.5677 11.276C97.5677 9.916 97.8397 8.724 98.3837 7.7C98.9437 6.66 99.7197 5.86 100.712 5.3C101.72 4.74 102.872 4.46 104.168 4.46C105.416 4.46 106.528 4.732 107.504 5.276C108.48 5.82 109.24 6.588 109.784 7.58C110.328 8.556 110.6 9.684 110.6 10.964ZM107.744 10.1C107.728 9.092 107.368 8.284 106.664 7.676C105.96 7.068 105.088 6.764 104.048 6.764C103.104 6.764 102.296 7.068 101.624 7.676C100.952 8.268 100.552 9.076 100.424 10.1H107.744ZM119.964 4.46C121.004 4.46 121.932 4.676 122.748 5.108C123.58 5.54 124.228 6.18 124.692 7.028C125.156 7.876 125.388 8.9 125.388 10.1V17.9H122.676V10.508C122.676 9.324 122.38 8.42 121.788 7.796C121.196 7.156 120.388 6.836 119.364 6.836C118.34 6.836 117.524 7.156 116.916 7.796C116.324 8.42 116.028 9.324 116.028 10.508V17.9H113.292V4.676H116.028V6.188C116.476 5.644 117.044 5.22 117.732 4.916C118.436 4.612 119.18 4.46 119.964 4.46ZM115.62 3.308C115.748 2.38 116.052 1.684 116.532 1.22C117.012 0.74 117.612 0.5 118.332 0.5C118.636 0.5 118.9 0.548 119.124 0.644C119.348 0.739999 119.62 0.883999 119.94 1.076C120.18 1.236 120.38 1.356 120.54 1.436C120.716 1.516 120.908 1.556 121.116 1.556C121.388 1.556 121.612 1.476 121.788 1.316C121.98 1.14 122.1 0.884 122.148 0.547999H123.684C123.556 1.476 123.252 2.18 122.772 2.66C122.292 3.124 121.692 3.356 120.972 3.356C120.668 3.356 120.396 3.308 120.156 3.212C119.916 3.1 119.652 2.948 119.364 2.756C119.076 2.58 118.852 2.46 118.692 2.396C118.548 2.316 118.38 2.276 118.188 2.276C117.916 2.276 117.684 2.364 117.492 2.54C117.316 2.716 117.204 2.972 117.156 3.308H115.62ZM127.966 11.228C127.966 9.9 128.238 8.724 128.782 7.7C129.342 6.676 130.094 5.884 131.038 5.324C131.998 4.748 133.054 4.46 134.206 4.46C135.246 4.46 136.15 4.668 136.918 5.084C137.702 5.484 138.326 5.988 138.79 6.596V4.676H141.55V17.9H138.79V15.932C138.326 16.556 137.694 17.076 136.894 17.492C136.094 17.908 135.182 18.116 134.158 18.116C133.022 18.116 131.982 17.828 131.038 17.252C130.094 16.66 129.342 15.844 128.782 14.804C128.238 13.748 127.966 12.556 127.966 11.228ZM138.79 11.276C138.79 10.364 138.598 9.572 138.214 8.9C137.846 8.228 137.358 7.716 136.75 7.364C136.142 7.012 135.486 6.836 134.782 6.836C134.078 6.836 133.422 7.012 132.814 7.364C132.206 7.7 131.71 8.204 131.326 8.876C130.958 9.532 130.774 10.316 130.774 11.228C130.774 12.14 130.958 12.94 131.326 13.628C131.71 14.316 132.206 14.844 132.814 15.212C133.438 15.564 134.094 15.74 134.782 15.74C135.486 15.74 136.142 15.564 136.75 15.212C137.358 14.86 137.846 14.348 138.214 13.676C138.598 12.988 138.79 12.188 138.79 11.276Z" stroke="#989898"/>
</svg>
